# xmcd
#
# Track frame offsets:
#	150
#	16579
#	31731
#	45170
#	60383
#	73912
#	92713
#	106250
#	123394
#	135454
#	152308
#	164264
#	177306
#	192268
#	207839
#	218863
#	233012
#	245977
#	260525
#	280262
#	296113
#	312413
#
# Disc length: 4383 seconds
#
# Revision: 0
# Processed by: cddbd v1.5.1PL0 Copyright (c) Steve Scherf et al.
# Submitted via: dBpowerAMP V4.0
#
DISCID=33111d16
DTITLE=Jacó e Jacozinho - 22 sucessos - volume 1
DYEAR=1900
DGENRE=Sertanejo
TTITLE0=LADRAO DE TERRA
TTITLE1=É FOGO
TTITLE2=EMPREITADA PERIGOSA
TTITLE3=FILHO DE NOBRE
TTITLE4=NINHO DE COBRA
TTITLE5=VELHO VALENTE
TTITLE6=TERRA BRUTA
TTITLE7=OS FILHOS DA BAHIA
TTITLE8=PRETO E BRANCO
TTITLE9=CANÇÃO DO SOLDADO
TTITLE10=VIVA O LARI LARAI
TTITLE11=DEGRAU DA FAMA
TTITLE12=FUNDANGA
TTITLE13=CABOCLINHA
TTITLE14=AMIGO DA ONÇA
TTITLE15=HOMEM SEM RUMO
TTITLE16=CAVALO ENXUTO
TTITLE17=TROPA SAUDOSA
TTITLE18=A CAPA DO VIAJANTE
TTITLE19=MOÇA NAMORADEIRA
TTITLE20=PEÃO DA CIDADE
TTITLE21=IRMAOS
EXTD=
EXTT0=
EXTT1=
EXTT2=
EXTT3=
EXTT4=
EXTT5=
EXTT6=
EXTT7=
EXTT8=
EXTT9=
EXTT10=
EXTT11=
EXTT12=
EXTT13=
EXTT14=
EXTT15=
EXTT16=
EXTT17=
EXTT18=
EXTT19=
EXTT20=
EXTT21=
PLAYORDER=
